HIERARCHY
ROOT Hips
{
	OFFSET 0.000000 0.000000 0.000000 
	CHANNELS 6 Xposition Yposition Zposition Zrotation Yrotation Xrotation
	JOINT LeftUpLeg
	{
		OFFSET 1.363060 -1.794630 0.839290 
		CHANNELS 3 Zrotation Yrotation Xrotation
		JOINT LeftLeg
		{
			OFFSET 2.448110 -6.726130 0.000000 
			CHANNELS 3 Zrotation Yrotation Xrotation
			JOINT LeftFoot
			{
				OFFSET 2.562200 -7.039590 0.000000 
				CHANNELS 3 Zrotation Yrotation Xrotation
				JOINT LeftToeBase
				{
					OFFSET 0.157640 -0.433110 2.322550 
					CHANNELS 3 Zrotation Yrotation Xrotation
					End Site
					{
						OFFSET 0.000000 0.000000 0.000000 
					}
				}
			}
		}
	}
	JOINT RightUpLeg
	{
		OFFSET -1.305520 -1.794630 0.839290 
		CHANNELS 3 Zrotation Yrotation Xrotation
		JOINT RightLeg
		{
			OFFSET -2.542530 -6.985550 0.000000 
			CHANNELS 3 Zrotation Yrotation Xrotation
			JOINT RightFoot
			{
				OFFSET -2.568260 -7.056230 0.000000 
				CHANNELS 3 Zrotation Yrotation Xrotation
				JOINT RightToeBase
				{
					OFFSET -0.164730 -0.452590 2.363150 
					CHANNELS 3 Zrotation Yrotation Xrotation
					End Site
					{
						OFFSET 0.000000 0.000000 0.000000 
					}
				}
			}
		}
	}
	JOINT Spine
	{
		OFFSET 0.028270 2.035590 -0.193380 
		CHANNELS 3 Zrotation Yrotation Xrotation
		JOINT Spine1
		{
			OFFSET 0.056720 2.048850 -0.042750 
			CHANNELS 3 Zrotation Yrotation Xrotation
			JOINT Neck1
			{
				OFFSET -0.054170 1.746240 0.172020 
				CHANNELS 3 Zrotation Yrotation Xrotation
				JOINT Head
				{
					OFFSET 0.104070 1.761360 -0.123970 
					CHANNELS 3 Zrotation Yrotation Xrotation
					End Site
					{
						OFFSET 0.000000 0.000000 0.000000 
					}
				}
			}
			JOINT LeftArm
			{
				OFFSET 3.362410 1.200890 -0.311210 
				CHANNELS 3 Zrotation Yrotation Xrotation
				JOINT LeftForeArm
				{
					OFFSET 4.983000 -0.000000 -0.000000 
					CHANNELS 3 Zrotation Yrotation Xrotation
					JOINT LeftHand
					{
						OFFSET 3.483560 -0.000000 -0.000000 
						CHANNELS 3 Zrotation Yrotation Xrotation
						JOINT LeftHandIndex1
						{
							OFFSET 0.715260 -0.000000 -0.000000 
							CHANNELS 3 Zrotation Yrotation Xrotation
							End Site
							{
								OFFSET 0.000000 0.000000 0.000000 
							}
						}
					}
				}
			}
			JOINT RightArm
			{
				OFFSET -3.136600 1.374050 -0.404650 
				CHANNELS 3 Zrotation Yrotation Xrotation
				JOINT RightForeArm
				{
					OFFSET -5.241900 -0.000000 -0.000000 
					CHANNELS 3 Zrotation Yrotation Xrotation
					JOINT RightHand
					{
						OFFSET -3.444170 -0.000000 -0.000000 
						CHANNELS 3 Zrotation Yrotation Xrotation
						JOINT RightHandIndex1
						{
							OFFSET -0.622530 -0.000000 -0.000000 
							CHANNELS 3 Zrotation Yrotation Xrotation
							End Site
							{
								OFFSET 0.000000 0.000000 0.000000 
							}
						}
					}
				}
			}
		}
	}
}
MOTION
Frames: 7
Frame Time: 0.041667
0.503131 17.789570 19.816493 -0.246859 -2.551311 11.993247 -16.967723 -6.646210 -11.737174 -0.194485 4.935481 13.335353 -0.180837 2.828377 -4.434032 0.026300 -1.046000 -2.875500 24.841237 8.895962 -12.583629 -1.015677 -5.588303 15.827728 0.649247 -8.726232 -8.825676 -0.406800 -4.094700 11.343300 6.536059 -2.706783 1.682450 9.686085 -2.156673 0.911181 2.123422 -17.768891 25.837815 -1.453400 -7.729500 11.504200 -91.748235 2.468440 45.874706 34.499819 -45.490086 -14.751264 0.412197 0.098463 1.523407 -7.125000 0.000000 0.000000 65.213251 19.660500 5.580012 -12.510983 22.579840 -1.414690 1.312174 0.325848 4.297972 7.125000 0.000000 0.000000 
0.495932 17.792105 19.815074 -0.096997 -2.385976 11.948119 -17.104176 -6.623199 -11.516569 -0.221905 4.788584 12.931340 -0.169583 2.716393 -4.144965 0.033800 -1.186800 -3.262900 24.713979 8.893914 -12.935842 -1.075937 -5.811006 16.458904 0.634512 -8.652483 -8.961962 -0.300500 -3.524900 9.743700 6.563919 -2.598795 1.704268 9.715885 -2.106577 0.870901 1.815621 -17.770615 25.768794 -1.633200 -7.725600 11.427300 -91.763227 2.492254 46.070388 34.674750 -45.613047 -14.876021 0.409712 0.102726 1.345645 -7.125000 0.000000 0.000000 65.348606 19.642889 4.431443 -12.730418 22.958668 -1.502746 1.300775 0.324694 5.541108 7.125000 0.000000 0.000000 
0.501306 17.790280 19.811727 0.442441 -2.300005 11.867564 -17.736159 -6.641919 -11.377264 -0.231469 4.733444 12.779086 -0.147629 2.556582 -4.069627 0.049500 -1.435500 -3.948000 24.052804 8.687173 -13.088530 -1.119112 -5.931971 16.827124 0.607314 -8.520482 -9.241160 -0.366000 -3.886100 10.756300 6.508715 -2.656128 1.739924 9.720783 -2.145913 0.910757 1.742394 -17.623744 26.121248 -1.695600 -7.623800 11.632000 -91.760338 2.484621 45.793171 34.861795 -45.745873 -15.005940 0.406994 0.107090 1.707418 -7.125000 0.000000 0.000000 65.375896 19.988766 4.204488 -12.537528 22.604571 -1.370220 1.301438 0.304606 6.218939 7.125000 0.000000 0.000000 
0.495324 17.793727 19.811220 0.357034 -2.125441 11.869232 -17.576644 -6.892287 -11.304309 -0.236955 4.718313 12.731722 -0.161393 2.644468 -4.002980 0.018900 -0.888500 -2.442000 24.195372 8.656125 -13.268851 -1.141062 -6.024863 17.087984 0.614227 -8.596543 -9.333448 -0.281700 -3.413600 9.432500 6.564930 -2.666853 1.726592 9.741261 -2.146701 0.809910 1.736781 -17.480437 26.229881 -1.617000 -7.591100 11.644900 -91.850795 2.661790 45.632613 35.004174 -45.841692 -15.109730 0.406279 0.105572 1.550731 -7.125000 0.000000 0.000000 65.339674 19.881444 4.188671 -12.625558 22.725798 -1.370474 1.298123 0.280958 6.191903 7.125000 0.000000 0.000000 
0.500596 17.793727 19.804325 0.723753 -2.131442 11.891206 -17.970127 -6.794807 -11.419930 -0.241101 4.708930 12.699722 -0.071447 2.116426 -4.667738 0.023600 -0.992200 -2.727300 23.692158 8.667049 -13.529316 -1.180447 -6.139564 17.425714 0.595115 -8.502812 -9.491048 -0.374500 -3.930500 10.881100 6.606976 -2.755290 1.732762 9.996608 -2.206215 0.800129 1.547042 -17.204642 26.362743 -1.614800 -7.521100 11.745900 -92.213380 2.780324 45.243672 35.204848 -45.974234 -15.243481 0.402096 0.110261 1.299578 -7.125000 0.000000 0.000000 65.057699 20.114701 4.201480 -12.740045 22.927647 -1.408806 1.299043 0.265634 6.448223 7.125000 0.000000 0.000000 
0.491268 17.794944 19.801284 0.496485 -1.844694 11.922542 -17.653914 -6.955726 -11.543926 -0.220364 4.757159 12.826409 -0.107789 2.262034 -3.844337 0.004200 -0.416100 -1.143300 24.037537 8.520066 -13.734075 -1.193025 -6.198600 17.586761 0.608907 -8.581235 -9.392526 -0.266300 -3.319800 9.170300 6.660679 -2.833398 1.746960 9.942607 -2.241136 0.825829 1.742248 -17.041814 26.494634 -1.512900 -7.431500 11.849900 -92.093333 2.836959 45.328833 35.230056 -45.992431 -15.264092 0.407403 0.101947 1.132482 -7.125000 0.000000 0.000000 65.233294 20.203327 4.018761 -12.816071 23.048432 -1.424005 1.293434 0.260765 6.776095 7.125000 0.000000 0.000000 
0.482345 17.794437 19.787595 0.964622 -1.876463 11.973236 -18.127150 -6.955992 -11.718601 -0.216628 4.765475 12.837353 -0.092025 2.138486 -3.703897 0.004600 -0.438100 -1.203700 23.430363 9.010910 -13.877173 -1.224043 -6.320825 17.931649 0.632447 -8.901185 -9.839291 -0.477400 -4.431000 12.292400 6.604291 -2.698693 1.734539 10.047082 -2.185804 0.697414 1.546241 -17.051590 26.416563 -1.664200 -7.413400 11.792200 -91.999347 2.751431 45.381994 35.217740 -45.986974 -15.256284 0.405115 0.104588 1.009687 -7.125000 0.000000 0.000000 65.220997 20.211972 4.034348 -12.946037 23.236070 -1.463809 1.285094 0.269215 6.274000 7.125000 0.000000 0.000000 
